<svg width="22" height="22" viewBox="0 0 22 22" fill="none" xmlns="http://www.w3.org/2000/svg">
<path d="M20.5924 3.55617C21.1857 2.96286 21.1857 2.00091 20.5924 1.4076V1.4076C19.9991 0.814287 19.0372 0.814287 18.4438 1.4076L11 8.85141L3.55623 1.4076C2.96292 0.814286 2.00097 0.814287 1.40766 1.4076V1.4076C0.814348 2.00091 0.814348 2.96286 1.40766 3.55617L8.85147 11L1.40766 18.4438C0.814347 19.0371 0.814348 19.999 1.40766 20.5924V20.5924C2.00097 21.1857 2.96292 21.1857 3.55623 20.5924L11 13.1486L18.4439 20.5924C19.0372 21.1857 19.9991 21.1857 20.5924 20.5924V20.5924C21.1857 19.999 21.1857 19.0371 20.5924 18.4438L13.1486 11L20.5924 3.55617Z" fill="white"/>
</svg>
